<?xml version="1.0" standalone="no"?>
<!DOCTYPE svg PUBLIC "-//W3C//DTD SVG 20010904//EN"
 "http://www.w3.org/TR/2001/REC-SVG-20010904/DTD/svg10.dtd">
<svg version="1.0" xmlns="http://www.w3.org/2000/svg"
 width="500.000000pt" height="500.000000pt" viewBox="0 0 500.000000 500.000000"
 preserveAspectRatio="xMidYMid meet">

<g transform="translate(0.000000,500.000000) scale(0.100000,-0.100000)"
fill="#000000" stroke="none">
<path d="M852 2914 c-21 -37 -3 -53 62 -56 l61 -3 5 -245 c3 -135 7 -246 8
-247 5 -7 648 -2 658 5 11 7 104 380 104 414 0 16 -25 18 -347 20 l-348 3 -3
30 c-1 17 -5 45 -8 63 l-5 32 -89 0 c-72 0 -91 -3 -98 -16z"/>
<path d="M662 2758 c-7 -7 -8 -17 -1 -30 9 -16 23 -18 129 -18 65 0 125 3 134
6 21 8 21 40 0 48 -29 11 -249 7 -262 -6z"/>
<path d="M1877 2733 c-4 -3 -7 -66 -7 -140 l0 -133 25 0 c25 0 25 1 25 92 l0
93 94 -94 c77 -76 97 -92 115 -86 20 6 21 13 21 141 l0 134 -30 0 -30 0 0 -92
0 -93 -93 93 c-88 88 -105 100 -120 85z"/>
<path d="M2180 2711 c0 -24 4 -28 28 -29 15 0 39 0 55 -1 l27 -1 0 -80 0 -80
-32 -1 c-18 -1 -43 0 -55 1 -19 1 -23 -4 -23 -29 l0 -31 140 0 140 0 0 30 c0
30 -1 30 -55 30 l-55 0 0 80 0 80 38 1 c64 2 67 3 70 32 l3 27 -140 0 -141 0
0 -29z"/>
<path d="M2507 2722 c-14 -15 -17 -40 -17 -124 0 -138 0 -138 143 -138 132 0
137 4 137 101 l0 69 -85 0 -85 0 0 -30 c0 -30 1 -30 53 -30 61 0 67 -3 60 -31
-5 -17 -15 -19 -84 -19 l-79 0 0 83 0 82 110 -3 110 -3 0 30 0 31 -123 0
c-107 0 -126 -2 -140 -18z"/>
<path d="M2800 2600 l0 -140 30 0 c30 0 30 1 30 55 l0 56 83 -3 82 -3 -3 -52
-3 -53 30 0 31 0 0 141 0 140 -27 -3 c-27 -3 -28 -5 -27 -55 l0 -53 -86 0 -86
0 4 55 3 55 -30 0 -31 0 0 -140z"/>
<path d="M3110 2710 c0 -30 1 -30 55 -30 l55 0 0 -110 0 -110 30 0 30 0 0 110
0 110 43 1 c23 1 48 1 55 0 7 -1 12 10 12 29 l0 30 -140 0 -140 0 0 -30z"/>
<path d="M3436 2718 c-12 -17 -16 -48 -16 -118 0 -140 0 -140 156 -140 l124 0
0 30 0 30 -110 0 -110 0 0 80 0 80 109 0 c108 0 109 0 113 25 3 13 3 27 0 30
-3 3 -61 5 -128 5 -116 0 -124 -1 -138 -22z"/>
<path d="M3746 2718 c-12 -17 -16 -50 -16 -140 l0 -118 30 0 c30 0 30 1 30 55
l0 56 83 -3 82 -3 3 -53 c3 -51 4 -53 30 -50 15 2 26 6 25 11 -2 4 -3 58 -3
121 0 149 2 146 -140 146 -101 0 -110 -2 -124 -22z m214 -63 c0 -25 -1 -25
-85 -25 -84 0 -85 0 -85 25 0 25 1 25 85 25 84 0 85 0 85 -25z"/>
<path d="M4040 2600 l0 -140 30 0 c30 0 30 1 30 55 0 46 3 55 18 55 10 0 42
-25 72 -55 49 -50 58 -55 98 -55 41 0 43 1 40 28 -2 22 -9 28 -33 30 -30 4
-65 27 -65 44 0 4 13 8 28 8 44 0 63 21 69 73 4 34 1 54 -11 72 -16 25 -19 25
-146 25 l-130 0 0 -140z m230 55 c0 -25 -1 -25 -85 -25 -84 0 -85 0 -85 25 0
25 1 25 85 25 84 0 85 0 85 -25z"/>
<path d="M4352 2713 c3 -26 7 -28 58 -33 l55 -5 3 -107 c3 -107 3 -108 27
-108 28 0 27 -5 26 115 -1 44 2 85 7 92 4 6 30 13 57 15 46 3 50 5 53 31 l3
27 -146 0 -146 0 3 -27z"/>
<path d="M420 2555 l0 -25 258 2 c249 3 257 4 257 23 0 19 -8 20 -257 23
l-258 2 0 -25z"/>
<path d="M664 2375 c-15 -39 1 -45 125 -45 132 0 151 4 151 30 0 26 -19 30
-151 30 -97 0 -121 -3 -125 -15z"/>
<path d="M2228 2343 c7 -3 16 -2 19 1 4 3 -2 6 -13 5 -11 0 -14 -3 -6 -6z"/>
<path d="M2610 2340 c0 -5 7 -7 15 -4 8 4 15 8 15 10 0 2 -7 4 -15 4 -8 0 -15
-4 -15 -10z"/>
<path d="M2828 2343 c12 -2 30 -2 40 0 9 3 -1 5 -23 4 -22 0 -30 -2 -17 -4z"/>
<path d="M3201 2345 c0 -5 6 -32 13 -60 8 -27 14 -41 14 -30 0 21 -25 107 -27
90z"/>
<path d="M3640 2343 c8 -3 24 -10 35 -15 20 -9 20 -9 1 6 -11 9 -27 16 -35 15
-14 0 -14 -1 -1 -6z"/>
<path d="M4020 2333 c0 -12 3 -14 8 -6 4 6 21 13 37 16 27 4 27 4 -7 6 -30 1
-38 -3 -38 -16z"/>
<path d="M4228 2343 c12 -2 30 -2 40 0 9 3 -1 5 -23 4 -22 0 -30 -2 -17 -4z"/>
<path d="M3287 2328 c-2 -7 -1 -22 3 -33 6 -17 8 -15 12 13 4 31 -5 45 -15 20z"/>
<path d="M3441 2288 c-12 -28 -19 -53 -17 -55 2 -3 7 5 11 16 7 23 30 28 38 9
3 -7 6 8 6 35 1 26 -3 47 -8 47 -4 0 -18 -23 -30 -52z m25 -5 c-11 -11 -17 4
-9 23 7 18 8 18 11 1 2 -10 1 -21 -2 -24z"/>
<path d="M3817 2286 c-4 -32 -5 -61 -2 -64 3 -3 5 6 5 20 0 15 14 39 38 63 30
31 32 35 10 20 -16 -9 -29 -22 -29 -29 -1 -6 -4 3 -8 19 -6 26 -8 22 -14 -29z"/>
<path d="M1016 2309 c-38 -30 -49 -64 -36 -105 15 -44 45 -64 97 -64 57 0 93
37 93 97 0 34 -5 46 -31 67 -38 32 -86 34 -123 5z"/>
<path d="M1304 2312 c-78 -63 -40 -172 60 -172 44 1 66 13 84 47 34 63 -15
143 -86 143 -20 0 -47 -8 -58 -18z"/>
<path d="M2461 2320 c0 -8 -10 -33 -21 -55 -12 -22 -14 -32 -6 -22 10 14 15
15 20 5 4 -9 5 -9 4 2 -1 8 2 23 6 32 4 9 6 25 3 35 -3 13 -5 13 -6 3z"/>
<path d="M2802 2310 c0 -14 2 -19 5 -12 2 6 2 18 0 25 -3 6 -5 1 -5 -13z"/>
<path d="M3061 2317 c-1 -10 -11 -22 -23 -27 -16 -6 -18 -9 -7 -9 21 -1 43 24
36 41 -3 8 -6 6 -6 -5z"/>
<path d="M3616 2277 c-4 -32 -5 -61 -2 -65 3 -3 6 9 6 26 l0 32 28 -28 c15
-15 19 -19 10 -7 -10 11 -21 39 -26 60 l-8 40 -8 -58z"/>
<path d="M2602 2290 c0 -19 2 -27 5 -17 2 9 2 25 0 35 -3 9 -5 1 -5 -18z"/>
<path d="M3192 2285 c0 -16 2 -22 5 -12 2 9 2 23 0 30 -3 6 -5 -1 -5 -18z"/>
<path d="M4011 2293 c-1 -20 3 -23 37 -21 36 1 36 1 5 5 -19 3 -34 11 -36 21
-3 12 -5 10 -6 -5z"/>
<path d="M2646 2285 c-11 -8 -15 -15 -9 -15 6 0 16 7 23 15 16 19 11 19 -14 0z"/>
<path d="M4231 2285 c-1 -11 -4 -31 -6 -45 l-6 -25 11 25 c6 13 9 33 7 45 -4
19 -4 19 -6 0z"/>
<path d="M2393 2255 c0 -22 2 -30 4 -17 2 12 2 30 0 40 -3 9 -5 -1 -4 -23z"/>
<path d="M2990 2268 c0 -12 3 -18 7 -15 3 4 15 -1 26 -10 17 -15 16 -12 -3 15
-28 38 -30 39 -30 10z"/>
<path d="M3658 2283 c7 -3 16 -2 19 1 4 3 -2 6 -13 5 -11 0 -14 -3 -6 -6z"/>
<path d="M2791 2258 c1 -16 3 -18 6 -6 2 10 17 18 36 21 31 4 31 4 -5 5 -34 2
-38 -1 -37 -20z"/>
<path d="M3240 2240 c-6 -11 -8 -20 -6 -20 3 0 10 9 16 20 6 11 8 20 6 20 -3
0 -10 -9 -16 -20z"/>
<path d="M3850 2240 c6 -11 13 -20 16 -20 2 0 0 9 -6 20 -6 11 -13 20 -16 20
-2 0 0 -9 6 -20z"/>
<path d="M4001 2238 c-1 -26 2 -28 37 -26 36 1 36 1 5 5 -23 3 -33 10 -36 26
-4 18 -5 17 -6 -5z"/>
<path d="M2591 2234 c0 -11 3 -14 6 -6 3 7 2 16 -1 19 -3 4 -6 -2 -5 -13z"/>
<path d="M3181 2234 c0 -11 3 -14 6 -6 3 7 2 16 -1 19 -3 4 -6 -2 -5 -13z"/>
<path d="M3281 2234 c0 -11 3 -14 6 -6 3 7 2 16 -1 19 -3 4 -6 -2 -5 -13z"/>
<path d="M2799 2217 c5 -5 19 -7 32 -5 20 3 19 5 -9 9 -20 3 -29 2 -23 -4z"/>
</g>
</svg>
